<svg xmlns="http://www.w3.org/2000/svg" xmlns:xlink="http://www.w3.org/1999/xlink" width="500" zoomAndPan="magnify" viewBox="0 0 375 374.999991" height="500" preserveAspectRatio="xMidYMid meet" version="1.0"><defs><g/><clipPath id="2905a70c8c"><path d="M 88.109375 90.925781 L 287 90.925781 L 287 284.074219 L 88.109375 284.074219 Z M 88.109375 90.925781 " clip-rule="nonzero"/></clipPath><clipPath id="6275d9cf1b"><path d="M 154.40625 278.335938 C 164.597656 281.800781 176.183594 284.074219 187.554688 284.074219 C 198.925781 284.074219 209.867188 282.125 219.949219 278.660156 C 220.164062 278.550781 220.378906 278.550781 220.59375 278.441406 C 258.464844 264.582031 286.355469 227.972656 286.890625 186.339844 L 286.890625 90.925781 L 88.109375 90.925781 L 88.109375 186.269531 C 88.644531 228.191406 116.109375 264.796875 154.40625 278.335938 Z M 154.40625 278.335938 " clip-rule="nonzero"/></clipPath><clipPath id="717b1b7f9a"><path d="M 139.21875 148.347656 L 235.96875 148.347656 L 235.96875 230 L 139.21875 230 Z M 139.21875 148.347656 " clip-rule="nonzero"/></clipPath><clipPath id="6d6a6126a0"><path d="M 180 132.941406 L 195 132.941406 L 195 146 L 180 146 Z M 180 132.941406 " clip-rule="nonzero"/></clipPath><clipPath id="29ff2f444e"><path d="M 195 138 L 205.910156 138 L 205.910156 148.691406 L 195 148.691406 Z M 195 138 " clip-rule="nonzero"/></clipPath><clipPath id="c96dc560a2"><path d="M 169.160156 138 L 180 138 L 180 148.691406 L 169.160156 148.691406 Z M 169.160156 138 " clip-rule="nonzero"/></clipPath></defs><g clip-path="url(#2905a70c8c)"><g clip-path="url(#6275d9cf1b)"><path fill="#000000" d="M 88.109375 90.925781 L 286.539062 90.925781 L 286.539062 284.074219 L 88.109375 284.074219 Z M 88.109375 90.925781 " fill-opacity="1" fill-rule="nonzero"/></g></g><g fill="#ffde59" fill-opacity="1"><g transform="translate(102.107933, 211.523443)"><g><path d="M 1.0625 2.515625 C 0.988281 2.335938 0.984375 2.164062 1.046875 2 C 1.117188 1.84375 1.238281 1.726562 1.40625 1.65625 L 17.421875 -5.15625 C 17.597656 -5.226562 17.769531 -5.234375 17.9375 -5.171875 C 18.101562 -5.109375 18.222656 -4.988281 18.296875 -4.8125 L 21.328125 2.328125 C 22.148438 4.242188 22.335938 5.859375 21.890625 7.171875 C 21.441406 8.484375 20.488281 9.445312 19.03125 10.0625 C 18.175781 10.425781 17.359375 10.523438 16.578125 10.359375 C 15.804688 10.203125 15.171875 9.894531 14.671875 9.4375 C 14.660156 10.269531 14.398438 11.070312 13.890625 11.84375 C 13.378906 12.625 12.675781 13.207031 11.78125 13.59375 C 10.25 14.238281 8.796875 14.238281 7.421875 13.59375 C 6.054688 12.957031 4.976562 11.710938 4.1875 9.859375 Z M 14.078125 4.875 C 14.429688 5.707031 14.90625 6.265625 15.5 6.546875 C 16.101562 6.828125 16.75 6.820312 17.4375 6.53125 C 18.125 6.238281 18.5625 5.789062 18.75 5.1875 C 18.945312 4.582031 18.863281 3.851562 18.5 3 L 16.890625 -0.8125 L 12.46875 1.0625 Z M 6.640625 8.328125 C 7.003906 9.179688 7.523438 9.742188 8.203125 10.015625 C 8.878906 10.296875 9.578125 10.285156 10.296875 9.984375 C 11.015625 9.671875 11.503906 9.171875 11.765625 8.484375 C 12.023438 7.804688 11.976562 7.050781 11.625 6.21875 L 9.90625 2.15625 L 4.921875 4.265625 Z M 6.640625 8.328125 "/></g></g></g><g fill="#ffde59" fill-opacity="1"><g transform="translate(111.002723, 231.409692)"><g><path d="M 5.390625 7.578125 C 3.921875 5.628906 3.269531 3.742188 3.4375 1.921875 C 3.601562 0.109375 4.632812 -1.554688 6.53125 -3.078125 C 6.914062 -3.410156 7.503906 -3.878906 8.296875 -4.484375 C 9.117188 -5.097656 9.742188 -5.550781 10.171875 -5.84375 C 12.109375 -7.207031 14 -7.710938 15.84375 -7.359375 C 17.6875 -7.015625 19.320312 -5.898438 20.75 -4.015625 C 22.164062 -2.140625 22.789062 -0.265625 22.625 1.609375 C 22.46875 3.492188 21.460938 5.175781 19.609375 6.65625 C 18.804688 7.3125 18.203125 7.789062 17.796875 8.09375 C 17.421875 8.382812 16.8125 8.828125 15.96875 9.421875 C 13.988281 10.828125 12.09375 11.351562 10.28125 11 C 8.476562 10.65625 6.847656 9.515625 5.390625 7.578125 Z M 7.859375 5.71875 C 8.578125 6.664062 9.429688 7.203125 10.421875 7.328125 C 11.421875 7.453125 12.523438 7.09375 13.734375 6.25 C 14.609375 5.632812 15.195312 5.210938 15.5 4.984375 C 15.820312 4.734375 16.382812 4.285156 17.1875 3.640625 C 18.332031 2.710938 18.972656 1.75 19.109375 0.75 C 19.253906 -0.25 18.976562 -1.210938 18.28125 -2.140625 C 17.570312 -3.078125 16.71875 -3.613281 15.71875 -3.75 C 14.71875 -3.882812 13.613281 -3.523438 12.40625 -2.671875 C 11.988281 -2.390625 11.410156 -1.96875 10.671875 -1.40625 C 9.953125 -0.863281 9.378906 -0.414062 8.953125 -0.0625 C 7.816406 0.84375 7.171875 1.796875 7.015625 2.796875 C 6.859375 3.796875 7.140625 4.769531 7.859375 5.71875 Z M 7.859375 5.71875 "/></g></g></g><g fill="#ffde59" fill-opacity="1"><g transform="translate(124.608058, 248.710789)"><g><path d="M 7.078125 6.03125 C 5.171875 4.5 4.078125 2.828125 3.796875 1.015625 C 3.515625 -0.785156 4.101562 -2.648438 5.5625 -4.578125 C 5.875 -4.984375 6.34375 -5.578125 6.96875 -6.359375 C 7.613281 -7.160156 8.097656 -7.753906 8.421875 -8.140625 C 9.972656 -9.941406 11.6875 -10.898438 13.5625 -11.015625 C 15.4375 -11.128906 17.296875 -10.445312 19.140625 -8.96875 C 20.972656 -7.5 22.035156 -5.828125 22.328125 -3.953125 C 22.628906 -2.085938 22.066406 -0.210938 20.640625 1.671875 C 20.015625 2.492188 19.546875 3.101562 19.234375 3.5 C 18.929688 3.875 18.445312 4.453125 17.78125 5.234375 C 16.195312 7.078125 14.488281 8.050781 12.65625 8.15625 C 10.820312 8.257812 8.960938 7.550781 7.078125 6.03125 Z M 9.015625 3.625 C 9.941406 4.375 10.898438 4.6875 11.890625 4.5625 C 12.890625 4.445312 13.875 3.832031 14.84375 2.71875 C 15.539062 1.894531 16.003906 1.335938 16.234375 1.046875 C 16.492188 0.734375 16.9375 0.164062 17.5625 -0.65625 C 18.4375 -1.832031 18.820312 -2.925781 18.71875 -3.9375 C 18.613281 -4.945312 18.109375 -5.816406 17.203125 -6.546875 C 16.285156 -7.273438 15.320312 -7.582031 14.3125 -7.46875 C 13.3125 -7.351562 12.335938 -6.738281 11.390625 -5.625 C 11.046875 -5.238281 10.582031 -4.6875 10 -3.96875 C 9.4375 -3.257812 8.992188 -2.6875 8.671875 -2.25 C 7.796875 -1.082031 7.398438 0 7.484375 1 C 7.578125 2 8.085938 2.875 9.015625 3.625 Z M 9.015625 3.625 "/></g></g></g><g fill="#ffde59" fill-opacity="1"><g transform="translate(141.978195, 262.044939)"><g><path d="M 2.46875 1.171875 C 2.300781 1.085938 2.1875 0.960938 2.125 0.796875 C 2.0625 0.628906 2.070312 0.46875 2.15625 0.3125 L 9.578125 -15.421875 C 9.660156 -15.609375 9.78125 -15.726562 9.9375 -15.78125 C 10.101562 -15.84375 10.273438 -15.832031 10.453125 -15.75 L 12.640625 -14.734375 C 12.804688 -14.648438 12.914062 -14.523438 12.96875 -14.359375 C 13.03125 -14.203125 13.019531 -14.03125 12.9375 -13.84375 L 10.265625 -8.203125 L 18.421875 -11.46875 C 18.796875 -11.632812 19.179688 -11.628906 19.578125 -11.453125 L 22.03125 -10.296875 C 22.164062 -10.234375 22.257812 -10.125 22.3125 -9.96875 C 22.363281 -9.820312 22.359375 -9.679688 22.296875 -9.546875 C 22.242188 -9.429688 22.15625 -9.351562 22.03125 -9.3125 L 12.03125 -5.125 L 15.3125 6.234375 C 15.320312 6.367188 15.300781 6.484375 15.25 6.578125 C 15.1875 6.722656 15.082031 6.820312 14.9375 6.875 C 14.789062 6.925781 14.65625 6.921875 14.53125 6.859375 L 12 5.65625 C 11.65625 5.5 11.441406 5.316406 11.359375 5.109375 C 11.273438 4.910156 11.226562 4.796875 11.21875 4.765625 L 8.453125 -4.359375 L 5.515625 1.890625 C 5.429688 2.046875 5.304688 2.15625 5.140625 2.21875 C 4.984375 2.28125 4.820312 2.269531 4.65625 2.1875 Z M 2.46875 1.171875 "/></g></g></g><g fill="#ffde59" fill-opacity="1"><g transform="translate(159.855552, 269.787718)"><g/></g></g><g fill="#ffde59" fill-opacity="1"><g transform="translate(168.095321, 272.352927)"><g><path d="M 2.703125 0.359375 C 2.523438 0.335938 2.378906 0.253906 2.265625 0.109375 C 2.160156 -0.0234375 2.117188 -0.179688 2.140625 -0.359375 L 4.46875 -17.640625 C 4.488281 -17.828125 4.566406 -17.96875 4.703125 -18.0625 C 4.847656 -18.164062 5.007812 -18.207031 5.1875 -18.1875 L 7.671875 -17.84375 C 7.867188 -17.820312 8.015625 -17.742188 8.109375 -17.609375 C 8.210938 -17.484375 8.253906 -17.328125 8.234375 -17.140625 L 6.25 -2.390625 L 14.65625 -1.265625 C 14.851562 -1.234375 15.003906 -1.144531 15.109375 -1 C 15.210938 -0.863281 15.253906 -0.710938 15.234375 -0.546875 L 14.96875 1.359375 C 14.945312 1.535156 14.867188 1.675781 14.734375 1.78125 C 14.597656 1.894531 14.429688 1.9375 14.234375 1.90625 Z M 2.703125 0.359375 "/></g></g></g><g fill="#ffde59" fill-opacity="1"><g transform="translate(186.125136, 274.255402)"><g><path d="M 2.734375 -0.078125 C 2.546875 -0.0664062 2.382812 -0.125 2.25 -0.25 C 2.125 -0.375 2.0625 -0.523438 2.0625 -0.703125 L 1.578125 -18.140625 C 1.566406 -18.328125 1.617188 -18.476562 1.734375 -18.59375 C 1.859375 -18.71875 2.015625 -18.785156 2.203125 -18.796875 L 4.765625 -18.875 C 4.960938 -18.875 5.117188 -18.816406 5.234375 -18.703125 C 5.359375 -18.585938 5.425781 -18.4375 5.4375 -18.25 L 5.921875 -0.8125 C 5.921875 -0.632812 5.863281 -0.476562 5.75 -0.34375 C 5.644531 -0.21875 5.492188 -0.15625 5.296875 -0.15625 Z M 2.734375 -0.078125 "/></g></g></g><g fill="#ffde59" fill-opacity="1"><g transform="translate(196.972242, 274.161725)"><g><path d="M 2.671875 -0.5625 C 2.492188 -0.519531 2.328125 -0.546875 2.171875 -0.640625 C 2.023438 -0.734375 1.9375 -0.867188 1.90625 -1.046875 L -1.6875 -18.078125 C -1.726562 -18.273438 -1.703125 -18.445312 -1.609375 -18.59375 C -1.515625 -18.738281 -1.375 -18.832031 -1.1875 -18.875 L 6.40625 -20.46875 C 8.4375 -20.894531 10.050781 -20.765625 11.25 -20.078125 C 12.457031 -19.390625 13.222656 -18.269531 13.546875 -16.71875 C 13.734375 -15.8125 13.671875 -14.992188 13.359375 -14.265625 C 13.054688 -13.535156 12.640625 -12.972656 12.109375 -12.578125 C 12.921875 -12.390625 13.65625 -11.972656 14.3125 -11.328125 C 14.976562 -10.679688 15.410156 -9.878906 15.609375 -8.921875 C 15.953125 -7.304688 15.675781 -5.882812 14.78125 -4.65625 C 13.882812 -3.4375 12.453125 -2.617188 10.484375 -2.203125 Z M 7.515625 -12.875 C 8.398438 -13.0625 9.035156 -13.421875 9.421875 -13.953125 C 9.804688 -14.484375 9.921875 -15.117188 9.765625 -15.859375 C 9.609375 -16.585938 9.253906 -17.101562 8.703125 -17.40625 C 8.148438 -17.707031 7.421875 -17.765625 6.515625 -17.578125 L 2.46875 -16.71875 L 3.46875 -12.015625 Z M 9.453125 -4.90625 C 10.359375 -5.101562 11.007812 -5.503906 11.40625 -6.109375 C 11.8125 -6.710938 11.9375 -7.394531 11.78125 -8.15625 C 11.613281 -8.925781 11.21875 -9.503906 10.59375 -9.890625 C 9.976562 -10.285156 9.226562 -10.390625 8.34375 -10.203125 L 4.03125 -9.296875 L 5.140625 -4 Z M 9.453125 -4.90625 "/></g></g></g><g fill="#ffde59" fill-opacity="1"><g transform="translate(218.160015, 269.264953)"><g><path d="M 2.46875 -1.1875 C 2.289062 -1.101562 2.117188 -1.09375 1.953125 -1.15625 C 1.796875 -1.21875 1.675781 -1.328125 1.59375 -1.484375 L -5.953125 -17.171875 C -6.046875 -17.347656 -6.0625 -17.515625 -6 -17.671875 C -5.945312 -17.835938 -5.832031 -17.960938 -5.65625 -18.046875 L 0.578125 -21.046875 C 2.546875 -21.992188 4.304688 -22.28125 5.859375 -21.90625 C 7.421875 -21.539062 8.609375 -20.507812 9.421875 -18.8125 C 9.984375 -17.644531 10.171875 -16.53125 9.984375 -15.46875 C 9.804688 -14.40625 9.300781 -13.445312 8.46875 -12.59375 L 14.90625 -8.140625 C 15.019531 -8.066406 15.09375 -7.988281 15.125 -7.90625 C 15.195312 -7.769531 15.203125 -7.625 15.140625 -7.46875 C 15.078125 -7.320312 14.984375 -7.21875 14.859375 -7.15625 L 12.640625 -6.09375 C 12.390625 -5.96875 12.160156 -5.929688 11.953125 -5.984375 C 11.753906 -6.035156 11.550781 -6.125 11.34375 -6.25 L 5.515625 -10.484375 L 2.21875 -8.90625 L 5 -3.125 C 5.082031 -2.96875 5.09375 -2.800781 5.03125 -2.625 C 4.96875 -2.457031 4.847656 -2.332031 4.671875 -2.25 Z M 4.234375 -13.265625 C 5.191406 -13.722656 5.8125 -14.28125 6.09375 -14.9375 C 6.375 -15.59375 6.316406 -16.332031 5.921875 -17.15625 C 5.523438 -17.976562 4.976562 -18.488281 4.28125 -18.6875 C 3.582031 -18.894531 2.753906 -18.769531 1.796875 -18.3125 L -1.546875 -16.703125 L 0.890625 -11.65625 Z M 4.234375 -13.265625 "/></g></g></g><g fill="#ffde59" fill-opacity="1"><g transform="translate(237.285547, 259.629338)"><g><path d="M 0.71875 -0.59375 C 0.59375 -0.488281 0.453125 -0.441406 0.296875 -0.453125 C 0.148438 -0.472656 0.0234375 -0.546875 -0.078125 -0.671875 L -0.1875 -0.875 L -6.25 -18.25 C -6.394531 -18.71875 -6.285156 -19.101562 -5.921875 -19.40625 L -3.65625 -21.28125 C -3.300781 -21.570312 -2.914062 -21.597656 -2.5 -21.359375 L 13.4375 -12.171875 L 13.640625 -12.03125 C 13.742188 -11.90625 13.785156 -11.765625 13.765625 -11.609375 C 13.742188 -11.453125 13.679688 -11.332031 13.578125 -11.25 L 11.734375 -9.71875 C 11.441406 -9.476562 11.132812 -9.445312 10.8125 -9.625 L 7.796875 -11.328125 L 1.703125 -6.28125 L 2.828125 -3 C 2.929688 -2.644531 2.835938 -2.347656 2.546875 -2.109375 Z M 0.453125 -9.25 L 5.109375 -13.109375 L -2.484375 -17.53125 Z M 0.453125 -9.25 "/></g></g></g><g fill="#ffde59" fill-opacity="1"><g transform="translate(253.895984, 245.289069)"><g><path d="M 1.625 -2.203125 C 1.507812 -2.046875 1.363281 -1.953125 1.1875 -1.921875 C 1.019531 -1.898438 0.863281 -1.941406 0.71875 -2.046875 L -13.28125 -12.390625 C -13.4375 -12.515625 -13.53125 -12.660156 -13.5625 -12.828125 C -13.59375 -12.992188 -13.550781 -13.160156 -13.4375 -13.328125 L -9.328125 -18.890625 C -8.023438 -20.648438 -6.597656 -21.722656 -5.046875 -22.109375 C -3.492188 -22.503906 -1.960938 -22.144531 -0.453125 -21.03125 C 0.597656 -20.257812 1.289062 -19.359375 1.625 -18.328125 C 1.957031 -17.304688 1.953125 -16.226562 1.609375 -15.09375 L 9.390625 -14.171875 C 9.523438 -14.140625 9.625 -14.097656 9.6875 -14.046875 C 9.8125 -13.953125 9.878906 -13.828125 9.890625 -13.671875 C 9.910156 -13.515625 9.878906 -13.378906 9.796875 -13.265625 L 8.34375 -11.28125 C 8.175781 -11.0625 7.988281 -10.925781 7.78125 -10.875 C 7.570312 -10.820312 7.347656 -10.804688 7.109375 -10.828125 L -0.03125 -11.859375 L -2.203125 -8.921875 L 2.96875 -5.09375 C 3.113281 -4.988281 3.195312 -4.847656 3.21875 -4.671875 C 3.25 -4.492188 3.203125 -4.328125 3.078125 -4.171875 Z M -2.4375 -13.703125 C -1.800781 -14.554688 -1.515625 -15.335938 -1.578125 -16.046875 C -1.640625 -16.765625 -2.039062 -17.394531 -2.78125 -17.9375 C -3.507812 -18.476562 -4.226562 -18.675781 -4.9375 -18.53125 C -5.644531 -18.394531 -6.316406 -17.898438 -6.953125 -17.046875 L -9.15625 -14.0625 L -4.640625 -10.71875 Z M -2.4375 -13.703125 "/></g></g></g><g fill="#ffde59" fill-opacity="1"><g transform="translate(266.255668, 227.865687)"><g><path d="M 2.96875 -7.046875 C 2.894531 -6.878906 2.773438 -6.757812 2.609375 -6.6875 C 2.453125 -6.625 2.289062 -6.628906 2.125 -6.703125 L -3.421875 -9.03125 L -16.203125 -7.546875 C -16.359375 -7.554688 -16.457031 -7.570312 -16.5 -7.59375 C -16.644531 -7.644531 -16.742188 -7.742188 -16.796875 -7.890625 C -16.859375 -8.046875 -16.859375 -8.191406 -16.796875 -8.328125 L -15.875 -10.546875 C -15.738281 -10.859375 -15.472656 -11.046875 -15.078125 -11.109375 L -6.203125 -12.234375 L -11.59375 -19.40625 C -11.675781 -19.507812 -11.738281 -19.644531 -11.78125 -19.8125 C -11.832031 -19.988281 -11.820312 -20.171875 -11.75 -20.359375 L -10.8125 -22.578125 C -10.75 -22.722656 -10.644531 -22.816406 -10.5 -22.859375 C -10.363281 -22.910156 -10.222656 -22.910156 -10.078125 -22.859375 C -9.984375 -22.816406 -9.90625 -22.75 -9.84375 -22.65625 L -1.953125 -12.515625 L 3.59375 -10.1875 C 3.78125 -10.113281 3.898438 -9.992188 3.953125 -9.828125 C 4.003906 -9.671875 3.992188 -9.5 3.921875 -9.3125 Z M 2.96875 -7.046875 "/></g></g></g><g clip-path="url(#717b1b7f9a)"><path fill="#87cb28" d="M 235.066406 169.34375 C 234.933594 167.074219 235.769531 164.53125 234.257812 162.554688 C 231.617188 161.828125 228.980469 161.089844 226.328125 160.441406 C 226.1875 157.15625 226.449219 153.859375 226.207031 150.585938 C 225.824219 148.347656 223.105469 149.128906 221.523438 149.109375 C 207.84375 149.796875 195.242188 157.535156 187.195312 168.414062 C 178.542969 156.625 164.359375 148.503906 149.507812 149.109375 C 149.214844 149.359375 148.617188 149.863281 148.3125 150.113281 C 147.859375 153.523438 148.285156 157 148.105469 160.429688 C 145.097656 161.644531 140.648438 161.453125 139.21875 164.921875 C 139.78125 166.292969 139.914062 167.773438 139.851562 169.25 C 139.722656 186.636719 139.972656 204.019531 139.730469 221.402344 C 139.503906 222.710938 139.746094 225.027344 141.628906 224.621094 C 147.707031 222.410156 154.25 221.613281 160.699219 221.984375 C 169.464844 222.667969 178.566406 224.726562 185.769531 229.976562 C 186.472656 229.976562 187.871094 229.976562 188.5625 229.984375 C 192.550781 226.925781 197.386719 225.261719 202.164062 223.882812 C 212.402344 221.015625 223.457031 221.28125 233.519531 224.722656 C 235.667969 224.359375 235.089844 222 235.105469 220.441406 C 235.015625 203.414062 235.09375 186.378906 235.066406 169.34375 Z M 143.511719 219.910156 C 143.5625 201.957031 143.503906 183.992188 143.535156 166.039062 C 145.070312 165.492188 146.613281 164.949219 148.15625 164.410156 C 148.125 178.75 148.132812 193.089844 148.148438 207.425781 C 147.949219 210.035156 151.210938 209.578125 152.910156 209.742188 C 163.050781 210.167969 172.285156 215.324219 179.652344 222.027344 C 168.277344 217.433594 155.328125 216.390625 143.511719 219.910156 Z M 193.027344 222.945312 C 198.65625 217.441406 205.140625 212.5 212.847656 210.375 C 216.816406 209.03125 221.019531 208.902344 225.148438 208.511719 C 226.484375 208.347656 226.207031 206.683594 226.300781 205.746094 C 226.292969 192.03125 226.285156 178.316406 226.292969 164.601562 C 227.949219 165.101562 229.605469 165.605469 231.269531 166.089844 C 231.503906 184.046875 231.277344 202.007812 231.378906 219.960938 C 218.769531 216.46875 204.992188 217.71875 193.027344 222.945312 Z M 193.027344 222.945312 " fill-opacity="1" fill-rule="nonzero"/></g><g clip-path="url(#6d6a6126a0)"><path fill="#ffde17" d="M 187.535156 132.941406 L 189.558594 137.125 L 194.082031 137.792969 L 190.808594 141.050781 L 191.582031 145.648438 L 187.535156 143.476562 L 183.488281 145.648438 L 184.261719 141.050781 L 180.988281 137.792969 L 185.511719 137.125 Z M 187.535156 132.941406 " fill-opacity="1" fill-rule="nonzero"/></g><g clip-path="url(#29ff2f444e)"><path fill="#ffde17" d="M 201.371094 138.492188 L 202.457031 141.929688 L 205.851562 142.960938 L 202.984375 145.082031 L 203.070312 148.691406 L 200.210938 146.566406 L 196.871094 147.765625 L 197.96875 144.332031 L 195.820312 141.460938 L 199.359375 141.464844 Z M 201.371094 138.492188 " fill-opacity="1" fill-rule="nonzero"/></g><g clip-path="url(#c96dc560a2)"><path fill="#ffde17" d="M 173.703125 138.492188 L 172.613281 141.929688 L 169.222656 142.960938 L 172.085938 145.082031 L 172 148.691406 L 174.859375 146.566406 L 178.199219 147.765625 L 177.101562 144.332031 L 179.25 141.460938 L 175.710938 141.464844 Z M 173.703125 138.492188 " fill-opacity="1" fill-rule="nonzero"/></g><g fill="#ffffff" fill-opacity="1"><g transform="translate(95.491444, 118.472528)"><g><path d="M 13.140625 -13.765625 C 13.359375 -14.035156 13.46875 -14.351562 13.46875 -14.71875 C 13.46875 -15.082031 13.359375 -15.410156 13.140625 -15.703125 C 12.921875 -16.003906 12.609375 -16.15625 12.203125 -16.15625 L 9.640625 -16.15625 L 9.640625 -13.375 L 12.203125 -13.375 C 12.609375 -13.375 12.921875 -13.503906 13.140625 -13.765625 Z M 9.640625 -8.265625 L 9.640625 -5.265625 L 12.484375 -5.265625 C 12.953125 -5.265625 13.300781 -5.421875 13.53125 -5.734375 C 13.769531 -6.046875 13.890625 -6.398438 13.890625 -6.796875 L 13.890625 -6.828125 C 13.890625 -7.210938 13.757812 -7.546875 13.5 -7.828125 C 13.25 -8.117188 12.910156 -8.265625 12.484375 -8.265625 Z M 13.28125 0 L 2.8125 0 C 2.59375 0 2.398438 -0.078125 2.234375 -0.234375 C 2.066406 -0.398438 1.984375 -0.597656 1.984375 -0.828125 L 1.984375 -20.59375 C 1.984375 -20.8125 2.066406 -21.003906 2.234375 -21.171875 C 2.398438 -21.335938 2.59375 -21.421875 2.8125 -21.421875 L 12.96875 -21.421875 C 15.863281 -21.421875 18 -20.894531 19.375 -19.84375 C 20.757812 -18.789062 21.453125 -17.203125 21.453125 -15.078125 L 21.453125 -14.984375 C 21.453125 -14.109375 21.195312 -13.328125 20.6875 -12.640625 C 20.175781 -11.960938 19.613281 -11.472656 19 -11.171875 C 19.8125 -10.835938 20.5 -10.257812 21.0625 -9.4375 C 21.625 -8.613281 21.90625 -7.710938 21.90625 -6.734375 C 21.90625 -2.242188 19.03125 0 13.28125 0 Z M 13.28125 0 "/></g></g></g><g fill="#ffffff" fill-opacity="1"><g transform="translate(118.623451, 118.472528)"><g><path d="M 4.171875 -19.453125 C 6.035156 -20.960938 8.507812 -21.71875 11.59375 -21.71875 C 14.675781 -21.71875 17.148438 -20.957031 19.015625 -19.4375 C 20.878906 -17.914062 21.8125 -15.78125 21.8125 -13.03125 L 21.8125 -8.265625 C 21.8125 -5.460938 20.890625 -3.332031 19.046875 -1.875 C 17.203125 -0.414062 14.71875 0.3125 11.59375 0.3125 C 8.476562 0.3125 5.992188 -0.414062 4.140625 -1.875 C 2.296875 -3.332031 1.375 -5.460938 1.375 -8.265625 L 1.375 -13.03125 C 1.375 -15.800781 2.304688 -17.941406 4.171875 -19.453125 Z M 9.9375 -6.265625 C 10.351562 -5.859375 10.90625 -5.65625 11.59375 -5.65625 C 12.289062 -5.65625 12.84375 -5.859375 13.25 -6.265625 C 13.65625 -6.679688 13.859375 -7.304688 13.859375 -8.140625 L 13.859375 -13.28125 C 13.859375 -14.09375 13.65625 -14.707031 13.25 -15.125 C 12.84375 -15.539062 12.289062 -15.75 11.59375 -15.75 C 10.90625 -15.75 10.351562 -15.539062 9.9375 -15.125 C 9.53125 -14.707031 9.328125 -14.09375 9.328125 -13.28125 L 9.328125 -8.140625 C 9.328125 -7.304688 9.53125 -6.679688 9.9375 -6.265625 Z M 9.9375 -6.265625 "/></g></g></g><g fill="#ffffff" fill-opacity="1"><g transform="translate(141.81665, 118.472528)"><g><path d="M 4.171875 -19.453125 C 6.035156 -20.960938 8.507812 -21.71875 11.59375 -21.71875 C 14.675781 -21.71875 17.148438 -20.957031 19.015625 -19.4375 C 20.878906 -17.914062 21.8125 -15.78125 21.8125 -13.03125 L 21.8125 -8.265625 C 21.8125 -5.460938 20.890625 -3.332031 19.046875 -1.875 C 17.203125 -0.414062 14.71875 0.3125 11.59375 0.3125 C 8.476562 0.3125 5.992188 -0.414062 4.140625 -1.875 C 2.296875 -3.332031 1.375 -5.460938 1.375 -8.265625 L 1.375 -13.03125 C 1.375 -15.800781 2.304688 -17.941406 4.171875 -19.453125 Z M 9.9375 -6.265625 C 10.351562 -5.859375 10.90625 -5.65625 11.59375 -5.65625 C 12.289062 -5.65625 12.84375 -5.859375 13.25 -6.265625 C 13.65625 -6.679688 13.859375 -7.304688 13.859375 -8.140625 L 13.859375 -13.28125 C 13.859375 -14.09375 13.65625 -14.707031 13.25 -15.125 C 12.84375 -15.539062 12.289062 -15.75 11.59375 -15.75 C 10.90625 -15.75 10.351562 -15.539062 9.9375 -15.125 C 9.53125 -14.707031 9.328125 -14.09375 9.328125 -13.28125 L 9.328125 -8.140625 C 9.328125 -7.304688 9.53125 -6.679688 9.9375 -6.265625 Z M 9.9375 -6.265625 "/></g></g></g><g fill="#ffffff" fill-opacity="1"><g transform="translate(165.00985, 118.472528)"><g><path d="M 22.03125 -1.015625 C 22.09375 -0.910156 22.125 -0.78125 22.125 -0.625 C 22.125 -0.46875 22.054688 -0.320312 21.921875 -0.1875 C 21.785156 -0.0625 21.628906 0 21.453125 0 L 14.46875 0 C 13.875 0 13.457031 -0.234375 13.21875 -0.703125 L 9.484375 -7.375 L 9.484375 -0.828125 C 9.484375 -0.597656 9.398438 -0.398438 9.234375 -0.234375 C 9.078125 -0.078125 8.882812 0 8.65625 0 L 2.8125 0 C 2.59375 0 2.398438 -0.078125 2.234375 -0.234375 C 2.066406 -0.398438 1.984375 -0.597656 1.984375 -0.828125 L 1.984375 -20.59375 C 1.984375 -20.8125 2.066406 -21.003906 2.234375 -21.171875 C 2.398438 -21.335938 2.59375 -21.421875 2.8125 -21.421875 L 8.65625 -21.421875 C 8.882812 -21.421875 9.078125 -21.335938 9.234375 -21.171875 C 9.398438 -21.003906 9.484375 -20.8125 9.484375 -20.59375 L 9.484375 -14.53125 L 12.9375 -20.75 C 13.164062 -21.195312 13.578125 -21.421875 14.171875 -21.421875 L 20.921875 -21.421875 C 21.109375 -21.421875 21.265625 -21.351562 21.390625 -21.21875 C 21.523438 -21.082031 21.59375 -20.9375 21.59375 -20.78125 C 21.59375 -20.632812 21.5625 -20.507812 21.5 -20.40625 L 16 -11.171875 Z M 22.03125 -1.015625 "/></g></g></g><g fill="#ffffff" fill-opacity="1"><g transform="translate(187.438097, 118.472528)"><g><path d="M 14.90625 -21.421875 L 20.4375 -21.421875 C 20.65625 -21.421875 20.847656 -21.335938 21.015625 -21.171875 C 21.179688 -21.003906 21.265625 -20.8125 21.265625 -20.59375 L 21.265625 -0.828125 C 21.265625 -0.597656 21.179688 -0.398438 21.015625 -0.234375 C 20.847656 -0.078125 20.65625 0 20.4375 0 L 15.609375 0 C 15.078125 0 14.65625 -0.234375 14.34375 -0.703125 L 9.171875 -8.5 L 9.171875 -0.828125 C 9.171875 -0.597656 9.085938 -0.398438 8.921875 -0.234375 C 8.765625 -0.078125 8.578125 0 8.359375 0 L 2.8125 0 C 2.59375 0 2.398438 -0.078125 2.234375 -0.234375 C 2.066406 -0.398438 1.984375 -0.597656 1.984375 -0.828125 L 1.984375 -20.59375 C 1.984375 -20.8125 2.066406 -21.003906 2.234375 -21.171875 C 2.398438 -21.335938 2.59375 -21.421875 2.8125 -21.421875 L 7.640625 -21.421875 C 8.210938 -21.421875 8.632812 -21.1875 8.90625 -20.71875 L 14.078125 -12.234375 L 14.078125 -20.59375 C 14.078125 -20.8125 14.15625 -21.003906 14.3125 -21.171875 C 14.476562 -21.335938 14.675781 -21.421875 14.90625 -21.421875 Z M 14.90625 -21.421875 "/></g></g></g><g fill="#ffffff" fill-opacity="1"><g transform="translate(210.692488, 118.472528)"><g><path d="M 4.171875 -19.453125 C 6.035156 -20.960938 8.507812 -21.71875 11.59375 -21.71875 C 14.675781 -21.71875 17.148438 -20.957031 19.015625 -19.4375 C 20.878906 -17.914062 21.8125 -15.78125 21.8125 -13.03125 L 21.8125 -8.265625 C 21.8125 -5.460938 20.890625 -3.332031 19.046875 -1.875 C 17.203125 -0.414062 14.71875 0.3125 11.59375 0.3125 C 8.476562 0.3125 5.992188 -0.414062 4.140625 -1.875 C 2.296875 -3.332031 1.375 -5.460938 1.375 -8.265625 L 1.375 -13.03125 C 1.375 -15.800781 2.304688 -17.941406 4.171875 -19.453125 Z M 9.9375 -6.265625 C 10.351562 -5.859375 10.90625 -5.65625 11.59375 -5.65625 C 12.289062 -5.65625 12.84375 -5.859375 13.25 -6.265625 C 13.65625 -6.679688 13.859375 -7.304688 13.859375 -8.140625 L 13.859375 -13.28125 C 13.859375 -14.09375 13.65625 -14.707031 13.25 -15.125 C 12.84375 -15.539062 12.289062 -15.75 11.59375 -15.75 C 10.90625 -15.75 10.351562 -15.539062 9.9375 -15.125 C 9.53125 -14.707031 9.328125 -14.09375 9.328125 -13.28125 L 9.328125 -8.140625 C 9.328125 -7.304688 9.53125 -6.679688 9.9375 -6.265625 Z M 9.9375 -6.265625 "/></g></g></g><g fill="#ffffff" fill-opacity="1"><g transform="translate(233.885687, 118.472528)"><g><path d="M 4.171875 -19.453125 C 6.035156 -20.960938 8.507812 -21.71875 11.59375 -21.71875 C 14.675781 -21.71875 17.148438 -20.957031 19.015625 -19.4375 C 20.878906 -17.914062 21.8125 -15.78125 21.8125 -13.03125 L 21.8125 -8.265625 C 21.8125 -5.460938 20.890625 -3.332031 19.046875 -1.875 C 17.203125 -0.414062 14.71875 0.3125 11.59375 0.3125 C 8.476562 0.3125 5.992188 -0.414062 4.140625 -1.875 C 2.296875 -3.332031 1.375 -5.460938 1.375 -8.265625 L 1.375 -13.03125 C 1.375 -15.800781 2.304688 -17.941406 4.171875 -19.453125 Z M 9.9375 -6.265625 C 10.351562 -5.859375 10.90625 -5.65625 11.59375 -5.65625 C 12.289062 -5.65625 12.84375 -5.859375 13.25 -6.265625 C 13.65625 -6.679688 13.859375 -7.304688 13.859375 -8.140625 L 13.859375 -13.28125 C 13.859375 -14.09375 13.65625 -14.707031 13.25 -15.125 C 12.84375 -15.539062 12.289062 -15.75 11.59375 -15.75 C 10.90625 -15.75 10.351562 -15.539062 9.9375 -15.125 C 9.53125 -14.707031 9.328125 -14.09375 9.328125 -13.28125 L 9.328125 -8.140625 C 9.328125 -7.304688 9.53125 -6.679688 9.9375 -6.265625 Z M 9.9375 -6.265625 "/></g></g></g><g fill="#ffffff" fill-opacity="1"><g transform="translate(257.078886, 118.472528)"><g><path d="M 22.03125 -1.015625 C 22.09375 -0.910156 22.125 -0.78125 22.125 -0.625 C 22.125 -0.46875 22.054688 -0.320312 21.921875 -0.1875 C 21.785156 -0.0625 21.628906 0 21.453125 0 L 14.46875 0 C 13.875 0 13.457031 -0.234375 13.21875 -0.703125 L 9.484375 -7.375 L 9.484375 -0.828125 C 9.484375 -0.597656 9.398438 -0.398438 9.234375 -0.234375 C 9.078125 -0.078125 8.882812 0 8.65625 0 L 2.8125 0 C 2.59375 0 2.398438 -0.078125 2.234375 -0.234375 C 2.066406 -0.398438 1.984375 -0.597656 1.984375 -0.828125 L 1.984375 -20.59375 C 1.984375 -20.8125 2.066406 -21.003906 2.234375 -21.171875 C 2.398438 -21.335938 2.59375 -21.421875 2.8125 -21.421875 L 8.65625 -21.421875 C 8.882812 -21.421875 9.078125 -21.335938 9.234375 -21.171875 C 9.398438 -21.003906 9.484375 -20.8125 9.484375 -20.59375 L 9.484375 -14.53125 L 12.9375 -20.75 C 13.164062 -21.195312 13.578125 -21.421875 14.171875 -21.421875 L 20.921875 -21.421875 C 21.109375 -21.421875 21.265625 -21.351562 21.390625 -21.21875 C 21.523438 -21.082031 21.59375 -20.9375 21.59375 -20.78125 C 21.59375 -20.632812 21.5625 -20.507812 21.5 -20.40625 L 16 -11.171875 Z M 22.03125 -1.015625 "/></g></g></g><g fill="#ffffff" fill-opacity="1"><g transform="translate(100.343098, 181.078735)"><g><path d="M 1.015625 0 C 0.921875 0 0.835938 -0.03125 0.765625 -0.09375 C 0.691406 -0.164062 0.65625 -0.253906 0.65625 -0.359375 L 0.65625 -1.125 C 0.65625 -1.394531 0.78125 -1.625 1.03125 -1.8125 L 3.328125 -4.09375 C 4.023438 -4.644531 4.5625 -5.09375 4.9375 -5.4375 C 5.320312 -5.789062 5.609375 -6.113281 5.796875 -6.40625 C 5.984375 -6.707031 6.078125 -7 6.078125 -7.28125 C 6.078125 -7.75 5.953125 -8.113281 5.703125 -8.375 C 5.460938 -8.644531 5.09375 -8.78125 4.59375 -8.78125 C 4.09375 -8.78125 3.703125 -8.632812 3.421875 -8.34375 C 3.148438 -8.050781 2.976562 -7.675781 2.90625 -7.21875 C 2.875 -7.09375 2.816406 -7.003906 2.734375 -6.953125 C 2.648438 -6.898438 2.5625 -6.875 2.46875 -6.875 L 1.140625 -6.875 C 1.046875 -6.875 0.96875 -6.898438 0.90625 -6.953125 C 0.851562 -7.015625 0.828125 -7.09375 0.828125 -7.1875 C 0.847656 -7.757812 1.003906 -8.300781 1.296875 -8.8125 C 1.597656 -9.320312 2.03125 -9.726562 2.59375 -10.03125 C 3.15625 -10.34375 3.816406 -10.5 4.578125 -10.5 C 5.359375 -10.5 6.023438 -10.363281 6.578125 -10.09375 C 7.128906 -9.820312 7.539062 -9.453125 7.8125 -8.984375 C 8.09375 -8.515625 8.234375 -7.976562 8.234375 -7.375 C 8.234375 -6.71875 8.046875 -6.117188 7.671875 -5.578125 C 7.304688 -5.046875 6.734375 -4.472656 5.953125 -3.859375 L 3.90625 -1.78125 L 8.078125 -1.78125 C 8.191406 -1.78125 8.28125 -1.742188 8.34375 -1.671875 C 8.414062 -1.609375 8.453125 -1.523438 8.453125 -1.421875 L 8.453125 -0.359375 C 8.453125 -0.242188 8.414062 -0.15625 8.34375 -0.09375 C 8.28125 -0.03125 8.191406 0 8.078125 0 Z M 1.015625 0 "/></g></g></g><g fill="#ffffff" fill-opacity="1"><g transform="translate(109.483705, 181.078735)"><g><path d="M 4.859375 0.140625 C 3.535156 0.140625 2.550781 -0.21875 1.90625 -0.9375 C 1.257812 -1.664062 0.910156 -2.625 0.859375 -3.8125 C 0.847656 -4.070312 0.84375 -4.519531 0.84375 -5.15625 C 0.84375 -5.8125 0.847656 -6.273438 0.859375 -6.546875 C 0.898438 -7.710938 1.25 -8.65625 1.90625 -9.375 C 2.570312 -10.101562 3.554688 -10.46875 4.859375 -10.46875 C 6.148438 -10.46875 7.125 -10.101562 7.78125 -9.375 C 8.445312 -8.65625 8.800781 -7.710938 8.84375 -6.546875 C 8.863281 -5.992188 8.875 -5.53125 8.875 -5.15625 C 8.875 -4.789062 8.863281 -4.34375 8.84375 -3.8125 C 8.789062 -2.625 8.441406 -1.664062 7.796875 -0.9375 C 7.148438 -0.21875 6.171875 0.140625 4.859375 0.140625 Z M 4.859375 -1.578125 C 5.460938 -1.578125 5.914062 -1.773438 6.21875 -2.171875 C 6.53125 -2.566406 6.695312 -3.132812 6.71875 -3.875 C 6.71875 -4.164062 6.71875 -4.601562 6.71875 -5.1875 C 6.71875 -5.78125 6.71875 -6.207031 6.71875 -6.46875 C 6.695312 -7.1875 6.53125 -7.75 6.21875 -8.15625 C 5.914062 -8.5625 5.460938 -8.769531 4.859375 -8.78125 C 4.242188 -8.769531 3.785156 -8.5625 3.484375 -8.15625 C 3.179688 -7.75 3.019531 -7.1875 3 -6.46875 C 2.988281 -6.207031 2.984375 -5.78125 2.984375 -5.1875 C 2.984375 -4.601562 2.988281 -4.164062 3 -3.875 C 3.019531 -3.132812 3.179688 -2.566406 3.484375 -2.171875 C 3.785156 -1.773438 4.242188 -1.578125 4.859375 -1.578125 Z M 4.859375 -1.578125 "/></g></g></g><g fill="#ffffff" fill-opacity="1"><g transform="translate(255.7916, 181.078735)"><g><path d="M 1.015625 0 C 0.921875 0 0.835938 -0.03125 0.765625 -0.09375 C 0.691406 -0.164062 0.65625 -0.253906 0.65625 -0.359375 L 0.65625 -1.125 C 0.65625 -1.394531 0.78125 -1.625 1.03125 -1.8125 L 3.328125 -4.09375 C 4.023438 -4.644531 4.5625 -5.09375 4.9375 -5.4375 C 5.320312 -5.789062 5.609375 -6.113281 5.796875 -6.40625 C 5.984375 -6.707031 6.078125 -7 6.078125 -7.28125 C 6.078125 -7.75 5.953125 -8.113281 5.703125 -8.375 C 5.460938 -8.644531 5.09375 -8.78125 4.59375 -8.78125 C 4.09375 -8.78125 3.703125 -8.632812 3.421875 -8.34375 C 3.148438 -8.050781 2.976562 -7.675781 2.90625 -7.21875 C 2.875 -7.09375 2.816406 -7.003906 2.734375 -6.953125 C 2.648438 -6.898438 2.5625 -6.875 2.46875 -6.875 L 1.140625 -6.875 C 1.046875 -6.875 0.96875 -6.898438 0.90625 -6.953125 C 0.851562 -7.015625 0.828125 -7.09375 0.828125 -7.1875 C 0.847656 -7.757812 1.003906 -8.300781 1.296875 -8.8125 C 1.597656 -9.320312 2.03125 -9.726562 2.59375 -10.03125 C 3.15625 -10.34375 3.816406 -10.5 4.578125 -10.5 C 5.359375 -10.5 6.023438 -10.363281 6.578125 -10.09375 C 7.128906 -9.820312 7.539062 -9.453125 7.8125 -8.984375 C 8.09375 -8.515625 8.234375 -7.976562 8.234375 -7.375 C 8.234375 -6.71875 8.046875 -6.117188 7.671875 -5.578125 C 7.304688 -5.046875 6.734375 -4.472656 5.953125 -3.859375 L 3.90625 -1.78125 L 8.078125 -1.78125 C 8.191406 -1.78125 8.28125 -1.742188 8.34375 -1.671875 C 8.414062 -1.609375 8.453125 -1.523438 8.453125 -1.421875 L 8.453125 -0.359375 C 8.453125 -0.242188 8.414062 -0.15625 8.34375 -0.09375 C 8.28125 -0.03125 8.191406 0 8.078125 0 Z M 1.015625 0 "/></g></g></g><g fill="#ffffff" fill-opacity="1"><g transform="translate(264.932207, 181.078735)"><g><path d="M 4.859375 0.140625 C 3.535156 0.140625 2.550781 -0.21875 1.90625 -0.9375 C 1.257812 -1.664062 0.910156 -2.625 0.859375 -3.8125 C 0.847656 -4.070312 0.84375 -4.519531 0.84375 -5.15625 C 0.84375 -5.8125 0.847656 -6.273438 0.859375 -6.546875 C 0.898438 -7.710938 1.25 -8.65625 1.90625 -9.375 C 2.570312 -10.101562 3.554688 -10.46875 4.859375 -10.46875 C 6.148438 -10.46875 7.125 -10.101562 7.78125 -9.375 C 8.445312 -8.65625 8.800781 -7.710938 8.84375 -6.546875 C 8.863281 -5.992188 8.875 -5.53125 8.875 -5.15625 C 8.875 -4.789062 8.863281 -4.34375 8.84375 -3.8125 C 8.789062 -2.625 8.441406 -1.664062 7.796875 -0.9375 C 7.148438 -0.21875 6.171875 0.140625 4.859375 0.140625 Z M 4.859375 -1.578125 C 5.460938 -1.578125 5.914062 -1.773438 6.21875 -2.171875 C 6.53125 -2.566406 6.695312 -3.132812 6.71875 -3.875 C 6.71875 -4.164062 6.71875 -4.601562 6.71875 -5.1875 C 6.71875 -5.78125 6.71875 -6.207031 6.71875 -6.46875 C 6.695312 -7.1875 6.53125 -7.75 6.21875 -8.15625 C 5.914062 -8.5625 5.460938 -8.769531 4.859375 -8.78125 C 4.242188 -8.769531 3.785156 -8.5625 3.484375 -8.15625 C 3.179688 -7.75 3.019531 -7.1875 3 -6.46875 C 2.988281 -6.207031 2.984375 -5.78125 2.984375 -5.1875 C 2.984375 -4.601562 2.988281 -4.164062 3 -3.875 C 3.019531 -3.132812 3.179688 -2.566406 3.484375 -2.171875 C 3.785156 -1.773438 4.242188 -1.578125 4.859375 -1.578125 Z M 4.859375 -1.578125 "/></g></g></g></svg>